# xmcd
#
# Track frame offsets: 
#        150
#        16200
#        34850
#        55250
#        77450
#        97475
#        112950
#        132450
#        151050
#        171900
#        186900
#        201225
#        218325
#        237000
#        252150
#        270300
#        290550
#        307425
#
# Disc length: 4579 seconds
#
# Revision: 6
# Processed by: cddbd v1.5.2PL0 Copyright (c) Steve Scherf et al.
# Submitted via: ExactAudioCopy v1.1
#
DISCID=fc11e112
DTITLE=Various Artists (Priester) - Kuschelrock Vol.07
DYEAR=1993
DGENRE=Pop
TTITLE0=Queen - Love Of My Life
TTITLE1=4 Non Blondes - What's Up (Piano Version)
TTITLE2=Scorpions - Send Me An Angel
TTITLE3=Roxette - Queen Of Rain
TTITLE4=Curtis Stigers - I Wonder Why
TTITLE5=Joe Cocker - Night Calls
TTITLE6=Mariah Carey - I'll Be There
TTITLE7=Paul McCartney and Wings - My Love
TTITLE8=David Crosby and Phil Collins - Hero
TTITLE9=Mathou - You Never Walk Alone
TTITLE10=Kylie Minogue and Keith Washington - If You Were With Me Now
TTITLE11=Amy Grant - That's What Love Is For
TTITLE12=Jon Secada - Angel
TTITLE13=Toto - I'll Be Over You
TTITLE14=Air Supply - All Out Of Love
TTITLE15=Bonnie Tyler - God Gave Love To You
TTITLE16=Mr. Big - Just Take My Heart
TTITLE17=Led Zeppelin - Stairway To Heaven (Remastered Version)
EXTD=
EXTT0=
EXTT1=piano version
EXTT2=
EXTT3=
EXTT4=
EXTT5=
EXTT6=unplugged version
EXTT7=
EXTT8=
EXTT9=
EXTT10=feat. Keith Washington
EXTT11=
EXTT12=
EXTT13=
EXTT14=
EXTT15=
EXTT16=
EXTT17=
PLAYORDER=
